HIERARCHY
ROOT Hips
{
  OFFSET 5.84602e-005 68.8428 3.50346
  CHANNELS 6 Xposition Yposition Zposition Zrotation Xrotation Yrotation
  JOINT Spine
  {
    OFFSET 0 8.597 -4.6522
    CHANNELS 3 Zrotation Xrotation Yrotation
    JOINT Spine1
    {
      OFFSET 0 7.8454 0.4098
      CHANNELS 3 Zrotation Xrotation Yrotation
      JOINT Spine2
      {
        OFFSET 0 9.7078 -2.1609
        CHANNELS 3 Zrotation Xrotation Yrotation
        JOINT Neck
        {
          OFFSET 0 21.8761 -0.4549
          CHANNELS 3 Zrotation Xrotation Yrotation
          JOINT Head
          {
            OFFSET 0 12.3537 3.3602
            CHANNELS 3 Zrotation Xrotation Yrotation
            End Site
            {
              OFFSET 0.0001 18.9506 0.5657
            }
          }
        }
        JOINT LeftShoulder
        {
          OFFSET 2.2086 21.1115 7.2329
          CHANNELS 3 Zrotation Xrotation Yrotation
          JOINT LeftArm
          {
            OFFSET 13.1193 3.0282 -4.8998
            CHANNELS 3 Zrotation Xrotation Yrotation
            JOINT LeftForeArm
            {
              OFFSET 27.4081 -0.0973053 -0.2375
              CHANNELS 3 Zrotation Xrotation Yrotation
              JOINT LeftHand
              {
                OFFSET 22.8641 0.0662994 -0.1369
                CHANNELS 3 Zrotation Xrotation Yrotation
                JOINT LeftHandIndex1
                {
                  OFFSET 8.8614 0.775009 2.4612
                  CHANNELS 3 Zrotation Xrotation Yrotation
                  JOINT LeftHandIndex2
                  {
                    OFFSET 3.3146 -0.808304 0.5841
                    CHANNELS 3 Zrotation Xrotation Yrotation
                    JOINT LeftHandIndex3
                    {
                      OFFSET 2.2628 -0.552002 0.3989
                      CHANNELS 3 Zrotation Xrotation Yrotation
                      End Site
                      {
                        OFFSET 1.6102 -0.4807 0.2612
                      }
                    }
                  }
                }
                JOINT LeftHandMiddle1
                {
                  OFFSET 8.9937 0.895004 0.2143
                  CHANNELS 3 Zrotation Xrotation Yrotation
                  JOINT LeftHandMiddle2
                  {
                    OFFSET 4.0984 0.0113983 -0.0242
                    CHANNELS 3 Zrotation Xrotation Yrotation
                    JOINT LeftHandMiddle3
                    {
                      OFFSET 2.2716 0.00689697 -0.0138001
                      CHANNELS 3 Zrotation Xrotation Yrotation
                      End Site
                      {
                        OFFSET 2.0404 -0.1441 0.0027
                      }
                    }
                  }
                }
                JOINT LeftHandRing1
                {
                  OFFSET 8.5234 0.597198 -2.0164
                  CHANNELS 3 Zrotation Xrotation Yrotation
                  JOINT LeftHandRing2
                  {
                    OFFSET 3.7188 -0.188293 -0.2328
                    CHANNELS 3 Zrotation Xrotation Yrotation
                    JOINT LeftHandRing3
                    {
                      OFFSET 2.1191 -0.106598 -0.1332
                      CHANNELS 3 Zrotation Xrotation Yrotation
                      End Site
                      {
                        OFFSET 1.8737 -0.2304 -0.0886
                      }
                    }
                  }
                }
                JOINT LeftHandPinky1
                {
                  OFFSET 7.9094 -0.601089 -3.4825
                  CHANNELS 3 Zrotation Xrotation Yrotation
                  JOINT LeftHandPinky2
                  {
                    OFFSET 2.2874 -0.477005 -0.6314
                    CHANNELS 3 Zrotation Xrotation Yrotation
                    JOINT LeftHandPinky3
                    {
                      OFFSET 1.6774 -0.349396 -0.4633
                      CHANNELS 3 Zrotation Xrotation Yrotation
                      End Site
                      {
                        OFFSET 1.4888 -0.4091 -0.3416
                      }
                    }
                  }
                }
                JOINT LeftHandThumb1
                {
                  OFFSET 1.833 -1.3875 1.3896
                  CHANNELS 3 Zrotation Xrotation Yrotation
                  JOINT LeftHandThumb2
                  {
                    OFFSET 3.4129 -1.121 2.5732
                    CHANNELS 3 Zrotation Xrotation Yrotation
                    JOINT LeftHandThumb3
                    {
                      OFFSET 2.2474 -0.804199 1.6192
                      CHANNELS 3 Zrotation Xrotation Yrotation
                      End Site
                      {
                        OFFSET 1.6527 -0.5689 1.1317
                      }
                    }
                  }
                }
              }
            }
          }
        }
        JOINT RightShoulder
        {
          OFFSET -2.2086 21.1115 7.2329
          CHANNELS 3 Zrotation Xrotation Yrotation
          JOINT RightArm
          {
            OFFSET -13.1216 3.0287 -4.9007
            CHANNELS 3 Zrotation Xrotation Yrotation
            JOINT RightForeArm
            {
              OFFSET -27.4081 -0.0973053 -0.2375
              CHANNELS 3 Zrotation Xrotation Yrotation
              JOINT RightHand
              {
                OFFSET -22.8641 0.0664063 -0.1369
                CHANNELS 3 Zrotation Xrotation Yrotation
                JOINT RightHandIndex1
                {
                  OFFSET -8.8614 0.774994 2.4612
                  CHANNELS 3 Zrotation Xrotation Yrotation
                  JOINT RightHandIndex2
                  {
                    OFFSET -3.3146 -0.808304 0.5841
                    CHANNELS 3 Zrotation Xrotation Yrotation
                    JOINT RightHandIndex3
                    {
                      OFFSET -2.2628 -0.552002 0.3989
                      CHANNELS 3 Zrotation Xrotation Yrotation
                      End Site
                      {
                        OFFSET -1.6102 -0.4807 0.2612
                      }
                    }
                  }
                }
                JOINT RightHandMiddle1
                {
                  OFFSET -8.9937 0.894989 0.2143
                  CHANNELS 3 Zrotation Xrotation Yrotation
                  JOINT RightHandMiddle2
                  {
                    OFFSET -4.0984 0.0113983 -0.0242
                    CHANNELS 3 Zrotation Xrotation Yrotation
                    JOINT RightHandMiddle3
                    {
                      OFFSET -2.2716 0.00691223 -0.0138001
                      CHANNELS 3 Zrotation Xrotation Yrotation
                      End Site
                      {
                        OFFSET -2.0404 -0.1441 0.0027
                      }
                    }
                  }
                }
                JOINT RightHandRing1
                {
                  OFFSET -8.5234 0.597198 -2.0164
                  CHANNELS 3 Zrotation Xrotation Yrotation
                  JOINT RightHandRing2
                  {
                    OFFSET -3.7188 -0.188309 -0.2328
                    CHANNELS 3 Zrotation Xrotation Yrotation
                    JOINT RightHandRing3
                    {
                      OFFSET -2.1191 -0.106598 -0.1332
                      CHANNELS 3 Zrotation Xrotation Yrotation
                      End Site
                      {
                        OFFSET -1.8737 -0.2304 -0.0886
                      }
                    }
                  }
                }
                JOINT RightHandPinky1
                {
                  OFFSET -7.9094 -0.601105 -3.4825
                  CHANNELS 3 Zrotation Xrotation Yrotation
                  JOINT RightHandPinky2
                  {
                    OFFSET -2.2874 -0.477005 -0.6314
                    CHANNELS 3 Zrotation Xrotation Yrotation
                    JOINT RightHandPinky3
                    {
                      OFFSET -1.6774 -0.349396 -0.4633
                      CHANNELS 3 Zrotation Xrotation Yrotation
                      End Site
                      {
                        OFFSET -1.4888 -0.4091 -0.3416
                      }
                    }
                  }
                }
                JOINT RightHandThumb1
                {
                  OFFSET -1.833 -1.38751 1.3896
                  CHANNELS 3 Zrotation Xrotation Yrotation
                  JOINT RightHandThumb2
                  {
                    OFFSET -3.41299 -1.12099 2.5732
                    CHANNELS 3 Zrotation Xrotation Yrotation
                    JOINT RightHandThumb3
                    {
                      OFFSET -2.24741 -0.804108 1.6192
                      CHANNELS 3 Zrotation Xrotation Yrotation
                      End Site
                      {
                        OFFSET -1.6527 -0.5689 1.1317
                      }
                    }
                  }
                }
              }
            }
          }
        }
      }
    }
  }
  JOINT RightUpLeg
  {
    OFFSET -9.1966 3.8861 -0.7581
    CHANNELS 3 Zrotation Xrotation Yrotation
    JOINT RightLeg
    {
      OFFSET -0.7359 -41.0265 0
      CHANNELS 3 Zrotation Xrotation Yrotation
      JOINT RightFoot
      {
        OFFSET 0 -40.2855 0
        CHANNELS 3 Zrotation Xrotation Yrotation
        JOINT RightToeBase
        {
          OFFSET 0 -5.6122 11.7359
          CHANNELS 3 Zrotation Xrotation Yrotation
          End Site
          {
            OFFSET 0 0 7.8731
          }
        }
      }
    }
  }
  JOINT LeftUpLeg
  {
    OFFSET 9.1965 3.8864 -0.7581
    CHANNELS 3 Zrotation Xrotation Yrotation
    JOINT LeftLeg
    {
      OFFSET 0.7359 -41.0268 0
      CHANNELS 3 Zrotation Xrotation Yrotation
      JOINT LeftFoot
      {
        OFFSET 0 -40.2855 0
        CHANNELS 3 Zrotation Xrotation Yrotation
        JOINT LeftToeBase
        {
          OFFSET 0 -5.6122 11.7359
          CHANNELS 3 Zrotation Xrotation Yrotation
          End Site
          {
            OFFSET 0 0 7.8731
          }
        }
      }
    }
  }
}
MOTION
Frames:	4
Frame Time:	0.0333333
5.84602e-005 68.8428 3.50346 0 0 -0 0 0 -0 0 0 -0 0 0 -0 0 0 -0 0 0 -0 0 0 -0 0 0 -0 0 0 -0 0 0 -0 0 0 -0 0 0 -0 0 0 -0 0 0 -0 -0.0146107 -8.87603e-005 -2.63497e-007 2.99804e-018 -2.42657e-020 -1.42182e-022 0 0 -0 -0.0187562 -0.001176 5.858e-005 5.06224e-018 3.88251e-019 1.21329e-020 0 0 -0 -0.012269 -0.00324817 0.000675346 -1.74678e-018 3.88251e-019 -0 0 0 -0 0 0 -0 0 0 -0 0 0 -0 0 0 -0 0 0 -0 0 0 -0 0 0 -0 0 0 -0 0 0 -0 0 0 -0 0.0149955 -9.10982e-005 2.64101e-007 -9.69331e-018 1.21329e-020 -4.7394e-023 0 0 -0 0.0189956 -0.00119102 -5.96516e-005 -5.41541e-019 0 2.42657e-020 0 0 -0 0.0122698 -0.00324857 -0.000673756 -2.00796e-019 0 -1.94126e-019 0 0 -0 0 0 -0 0 0 -0 3.39842 1.33031 -0.0637918 -5.65207e-008 0.834868 -0.000436188 -3.39935 -2.16518 -0.0642563 -8.89002e-024 -1.18485e-023 -1.48106e-024 -3.39844 1.35642 0.0640283 -3.18788e-007 0.782166 -0.000588827 3.39931 -2.13858 0.0634662 1.1399e-023 0 -0 
-22.6418 10.0335 42.006 -1.23918e-014 4.5103e-015 -130 -2.9061 10.3239 -2.52369 -5.47666 20.7558 -4.61828 -5.47666 20.7558 -4.61829 -9.66632e-005 0.000143011 4.45574e-005 0.0808209 -0.723538 -0.245869 -33.7975 2.92248 -54.5194 -7.46278 -0.228661 -24.8475 8.08553 -4.74235 -19.1907 1.15411 -4.6794 -28.4666 -1.44943e-006 2.18277e-006 1.54257e-006 1.44943e-006 -2.18277e-006 -1.54257e-006 -1.44943e-006 2.18277e-006 1.54257e-006 -1.44943e-006 2.18277e-006 1.54257e-006 -0.0146048 -8.91055e-005 -3.09264e-006 -1.44962e-006 2.18258e-006 1.54285e-006 -1.44943e-006 2.18277e-006 1.54257e-006 -0.0187673 -0.00117545 5.68269e-005 -1.44966e-006 2.18251e-006 1.54294e-006 -1.44943e-006 2.18277e-006 1.54257e-006 -0.0122725 -0.0032517 0.000671358 -1.44954e-006 2.18257e-006 1.54285e-006 -1.44943e-006 2.18277e-006 1.54257e-006 1.44943e-006 -2.18277e-006 -1.54257e-006 -1.44943e-006 2.18277e-006 1.54257e-006 50.56 11.0736 26.1447 26.0458 20.7968 8.26263 -2.75028 6.39332 67.7238 20.0149 -1.86549 -19.8205 7.18653e-007 -9.45171e-007 6.86206e-008 6.36111e-015 1.59028e-015 1.59028e-015 3.18055e-015 7.95139e-016 -2.38542e-015 7.18653e-007 -9.45171e-007 6.86206e-008 0.0150118 -9.02623e-005 -7.6074e-006 -1.27222e-014 0 1.59028e-015 7.18653e-007 -9.45171e-007 6.86206e-008 0.0190034 -0.0011872 -6.63454e-005 6.36111e-015 -7.95139e-016 7.95139e-016 7.18653e-007 -9.45171e-007 6.86206e-008 0.012195 -0.00322491 -0.000666359 -6.36111e-015 3.97569e-015 -1.98785e-015 7.18653e-007 -9.45171e-007 6.86206e-008 6.36111e-015 1.59028e-015 1.59028e-015 3.18055e-015 7.95139e-016 -2.38542e-015 -113.922 -24.8665 -97.5333 161.361 61.4335 -153.844 -2.82944 -8.20291 -36.571 6.21869e-007 -1.02756e-007 3.19489e-006 17.1469 -59.5944 16.5521 178.255 20.2171 170.988 -12.8466 11.4739 61.4214 6.36111e-015 6.36111e-015 -0 
-22.6418 10.0335 42.006 -1.23918e-014 4.5103e-015 -130 -2.9061 10.3239 -2.52369 -5.47666 20.7558 -4.61828 -5.47666 20.7558 -4.61829 -9.66632e-005 0.000143011 4.45574e-005 0.233728 -2.17639 -0.73639 -33.7975 2.92248 -54.5194 -7.46278 -0.228661 -24.8475 7.67229 -4.67944 -20.442 1.15412 -4.67939 -28.4666 4.41391e-032 1.59028e-015 -1.59028e-015 -0 -7.95139e-016 -0 1.59028e-015 -1.19271e-015 -0 4.41391e-032 1.59028e-015 -1.59028e-015 -0.0146145 -8.95053e-005 -3.625e-007 -1.59028e-015 -7.55382e-015 1.59028e-015 4.41391e-032 1.59028e-015 -1.59028e-015 -0.0187343 -0.00117339 5.65529e-005 2.97939e-031 3.57812e-015 -4.77083e-015 4.41391e-032 1.59028e-015 -1.59028e-015 -0.0122232 -0.00323184 0.000674266 1.65521e-031 1.98785e-015 -4.77083e-015 4.41391e-032 1.59028e-015 -1.59028e-015 -0 -7.95139e-016 -0 1.59028e-015 -1.19271e-015 -0 50.56 11.0736 26.1447 26.2566 20.8244 7.6697 -2.90661 6.09155 68.4345 19.4181 -1.83691 -19.4323 -0 0 2.5842e-015 -1.88706e-006 2.10669e-006 9.76727e-007 1.93108e-032 -7.95139e-016 1.39149e-015 -0 0 2.5842e-015 0.0149504 -8.68975e-005 1.80946e-006 -6.3669e-007 9.8751e-007 -1.32072e-007 -0 0 2.5842e-015 0.019012 -0.0011932 -5.57867e-005 -3.18055e-015 1.59028e-015 1.19271e-015 -0 0 2.5842e-015 0.0123168 -0.00325837 -0.000676667 -5.51738e-032 -7.95139e-016 -3.97569e-015 -0 0 2.5842e-015 -1.88706e-006 2.10669e-006 9.76727e-007 1.93108e-032 -7.95139e-016 1.39149e-015 -113.922 -24.8665 -97.5333 161.361 61.4335 -153.844 -2.82944 -8.20291 -36.571 6.21869e-007 -1.02756e-007 3.19489e-006 17.1469 -59.5944 16.5521 178.255 20.2171 170.988 -12.8466 11.4739 61.4214 6.36111e-015 6.36111e-015 -0 
-22.6418 10.0335 42.006 -1.23918e-014 4.5103e-015 -130 -2.9061 10.3239 -2.52369 -5.47666 20.7558 -4.61828 -5.47666 20.7558 -4.61829 -9.66632e-005 0.000143011 4.45574e-005 0.374917 -3.63647 -1.22566 -33.7975 2.92248 -54.5194 -7.46278 -0.228663 -24.8475 7.26014 -4.60745 -21.694 1.15412 -4.6794 -28.4666 1.54487e-031 -5.56597e-015 1.59028e-015 1.59028e-015 -1.98785e-015 -1.59028e-015 4.77083e-015 -5.1684e-015 -0 1.54487e-031 -5.56597e-015 1.59028e-015 -0.0146456 -8.80705e-005 1.50059e-006 -1.59028e-015 -2.38542e-015 -3.18055e-015 1.54487e-031 -5.56597e-015 1.59028e-015 -0.0187392 -0.00117468 6.05034e-005 1.38248e-006 1.01097e-006 1.16345e-006 1.54487e-031 -5.56597e-015 1.59028e-015 -0.0123264 -0.00325883 0.000679676 -1.38326e-006 -1.01079e-006 -1.16344e-006 1.54487e-031 -5.56597e-015 1.59028e-015 1.59028e-015 -1.98785e-015 -1.59028e-015 4.77083e-015 -5.1684e-015 -0 50.56 11.0736 26.1447 26.4677 20.8501 7.07635 -3.0592 5.78766 69.1444 18.8208 -1.81236 -19.0436 -3.18055e-015 -1.98785e-015 -2.38542e-015 -3.18055e-015 -3.97569e-016 -3.18055e-015 -6.36111e-015 3.97569e-016 -1.39149e-015 -3.18055e-015 -1.98785e-015 -2.38542e-015 0.0150393 -8.71207e-005 -1.86196e-006 -3.18055e-015 -1.19271e-015 3.18055e-015 -3.18055e-015 -1.98785e-015 -2.38542e-015 0.0190063 -0.00119176 -5.50831e-005 -0 0 4.96962e-015 -3.18055e-015 -1.98785e-015 -2.38542e-015 0.0122946 -0.00325421 -0.000675187 3.31043e-031 6.36111e-015 -2.98177e-015 -3.18055e-015 -1.98785e-015 -2.38542e-015 -3.18055e-015 -3.97569e-016 -3.18055e-015 -6.36111e-015 3.97569e-016 -1.39149e-015 -113.922 -24.8665 -97.5333 161.361 61.4335 -153.844 -2.82944 -8.20291 -36.571 6.21869e-007 -1.02756e-007 3.19489e-006 17.1469 -59.5944 16.5521 178.255 20.2171 170.988 -12.8466 11.4739 61.4214 6.36111e-015 6.36111e-015 -0 
